<svg xmlns="http://www.w3.org/2000/svg" fill="none" viewBox="0 0 64 64">
    <rect width="64" height="64" fill="#212121" fill-opacity=".14" rx="2"/>
    <path fill="#212121" d="M45.332 26.667c0-.242-.066-.48-.19-.687l-3.613-6.02a2.68 2.68 0 0 0-2.285-1.293h-14.49a2.68 2.68 0 0 0-2.286 1.294l-3.612 6.019a1.33 1.33 0 0 0-.19.687c0 1.34.514 2.552 1.333 3.49v12.51A1.334 1.334 0 0 0 21.332 44h10.667a1.334 1.334 0 0 0 1.333-1.333V36h5.333v6.667A1.333 1.333 0 0 0 40 44h2.666A1.334 1.334 0 0 0 44 42.667v-12.51c.818-.938 1.333-2.15 1.333-3.49ZM42.644 27a2.67 2.67 0 0 1-2.645 2.332 2.67 2.67 0 0 1-2.667-2.666c0-.091-.033-.171-.052-.256l.027-.006-1.015-5.072h2.952l3.4 5.668Zm-13.303-.248 1.083-5.42h3.148l1.084 5.42a2.664 2.664 0 0 1-2.657 2.58 2.665 2.665 0 0 1-2.658-2.58Zm-4.588-5.42h2.952l-1.013 5.072.027.006c-.02.085-.054.165-.054.256A2.67 2.67 0 0 1 24 29.333a2.67 2.67 0 0 1-2.646-2.332l3.4-5.668Zm4.579 16h-5.333v-4h5.333v4Z"/>
</svg>