<svg xmlns="http://www.w3.org/2000/svg" fill="none" viewBox="0 0 64 64">
    <rect width="64" height="64" fill="#1E884B" fill-opacity=".14" rx="2"/>
    <path fill="#1E884B" d="M44 24.028c.004-.195-.01-1.953-1.733-3.647-1.698-1.666-3.41-1.714-3.6-1.714H25.328c-.319 0-1.99.084-3.61 1.736C20.047 22.104 20 23.812 20 24v4h-1.333v4H20v8c0 .979.541 1.83 1.333 2.295V44a1.333 1.333 0 0 0 1.334 1.333H24A1.333 1.333 0 0 0 25.333 44v-1.333h13.334V44A1.333 1.333 0 0 0 40 45.333h1.333A1.333 1.333 0 0 0 42.667 44v-1.703A2.654 2.654 0 0 0 44 40v-8h1.333v-4H44v-3.972Zm-16-2.695h8V24h-8v-2.667ZM24.667 40a2 2 0 1 1 0-4 2 2 0 0 1 0 4Zm6-6.667h-8v-6.666h8v6.666ZM39.333 40a2 2 0 1 1 .002-4.001A2 2 0 0 1 39.333 40Zm2-6.667h-8v-6.666h8v6.666Z"/>
</svg>