<svg xmlns="http://www.w3.org/2000/svg" xml:space="preserve" fill-rule="evenodd" stroke-linejoin="round" stroke-miterlimit="2" clip-rule="evenodd" viewBox="0 0 400 400">
  <circle cx="81" cy="71" r="29" fill="#fab700" transform="translate(-358.621 -289.655) scale(6.89655)"/>
  <path fill="#212121" fill-rule="nonzero" d="M196.248 74.276c-16.993 12.22-30.904 10.572-40.173 6.455l24.931 50.317 34.807.897 24.138-53.076c-4.786-5.255-21.586-20.469-43.703-4.593Zm31.745 65.29h.11A3.642 3.642 0 0 0 231 138.13a76.175 76.175 0 0 1 1.724-2.124c.49.103.993.103 1.482 0 25.945-5.228 31.731 6.717 32.021 7.359a3.666 3.666 0 0 0 4.724 1.958c1.862-.738 2.759-2.896 1.993-4.752-.269-.69-6.558-15.262-32.151-12.875 6.53-5.973 14.944-11.787 22.51-11.945 4.517-.104 8.345 1.78 11.738 5.793a3.657 3.657 0 0 0 2.759 1.255 3.67 3.67 0 0 0 3.655-3.655 3.65 3.65 0 0 0-.842-2.331c-4.827-5.71-10.69-8.524-17.469-8.366-16.193.4-32.282 18.428-36.717 23.814l-2.655-.076-7.91-.214-2.125 4.67a3.739 3.739 0 0 0-.186 2.579l9.476.234 4.966.11Z"/>
  <path fill="#212121" fill-rule="nonzero" d="M287.413 258.455c-4.855-29.02-28.779-67.6-73.144-117.93a3.37 3.37 0 0 1-.738-1.353l-29.656-.772a3.662 3.662 0 0 1-1.544 2.414c-.235.186-24.635 16.965-45.773 42.53-27.903 33.773-37.276 66.008-27.82 95.822 10.165 32.13 36.344 44.896 56.551 49.944 39.42 9.876 85.752-1.675 102.69-18.207 12.586-12.324 23.655-27.172 19.434-52.44v-.008Zm-69.744 18.317c-4.138 4.042-10.09 6.538-17.863 7.49v11.573h-10.33v-11.256a55.63 55.63 0 0 1-14.552-2.676c-4.621-1.517-8.338-3.379-11.152-5.586l5.683-12.607c2.627 1.938 5.682 3.559 9.186 4.856a42.275 42.275 0 0 0 10.828 2.475V253.78a77.254 77.254 0 0 1-12.394-3.93 22.093 22.093 0 0 1-8.469-6.346c-2.282-2.786-3.4-6.475-3.4-11.096 0-5.704 2.07-10.62 6.242-14.704 4.165-4.09 10.165-6.586 18.027-7.49v-11.468H199.8V210c8.469.69 15.455 2.786 20.972 6.297l-5.172 12.717c-5.18-2.98-10.435-4.759-15.794-5.366V241.2c4.828 1.11 8.89 2.359 12.235 3.766 3.345 1.413 6.138 3.503 8.414 6.296 2.262 2.786 3.4 6.448 3.4 10.993 0 5.655-2.042 10.483-6.186 14.517Z"/>
  <path fill="#212121" fill-rule="nonzero" d="M205.324 259.283c-1.276-1.117-3.104-2.07-5.518-2.897v14.255c2.463-.551 4.325-1.434 5.573-2.682a6.05 6.05 0 0 0 1.862-4.435 5.311 5.311 0 0 0-1.917-4.241Zm-23.462-27.697c0 1.724.662 3.138 1.958 4.249 1.304 1.117 3.186 2.048 5.683 2.786v-14.649c-2.628.607-4.538 1.587-5.793 2.945a6.614 6.614 0 0 0-1.855 4.67h.007Z"/>
</svg>